<svg width="56" height="56" viewBox="0 0 56 56" fill="none" xmlns="http://www.w3.org/2000/svg">
<path d="M28 56C43.464 56 56 43.464 56 28C56 12.536 43.464 0 28 0C12.536 0 0 12.536 0 28C0 43.464 12.536 56 28 56Z" fill="#65BCFF"/>
<path d="M27.9546 43.2868C25.3902 40.4289 23.138 37.3055 21.2362 33.9697C19.6133 31.4441 18.4969 28.627 17.9492 25.6752C17.5231 23.9343 17.556 22.1125 18.0448 20.388C18.5336 18.6636 19.4615 17.0955 20.7379 15.8371C22.6768 13.9295 25.2727 12.8371 27.9922 12.7842C30.7116 12.7314 33.348 13.7222 35.3596 15.553C37.2931 17.3099 38.4905 19.7332 38.7114 22.3363C38.7171 22.3427 38.7215 22.3502 38.7242 22.3583C38.727 22.3663 38.7282 22.3749 38.7277 22.3834C38.7277 22.4143 38.7277 22.4451 38.7277 22.4776C38.7439 22.7243 38.7536 22.9645 38.7536 23.2129V23.2664C38.7536 23.4645 38.7536 23.6576 38.7342 23.8556C38.6684 24.9297 38.4345 25.9868 38.0411 26.9884C37.5024 28.5925 36.8715 30.1642 36.1517 31.6956C34.7383 34.7189 32.9536 37.5543 30.839 40.1362C29.9473 41.2477 28.9837 42.3012 27.9546 43.2868ZM28.2045 18.6501C27.4327 18.6587 26.6807 18.8955 26.0431 19.3307C25.4056 19.7658 24.911 20.3798 24.6217 21.0954C24.3324 21.8111 24.2612 22.5963 24.4172 23.3522C24.5732 24.1082 24.9493 24.8011 25.4983 25.3438C26.0472 25.8864 26.7445 26.2545 27.5022 26.4018C28.2599 26.549 29.0442 26.4688 29.7564 26.1712C30.4687 25.8736 31.0769 25.372 31.5047 24.7295C31.9324 24.0869 32.1605 23.3322 32.1603 22.5603C32.153 21.5176 31.7324 20.5204 30.9908 19.7874C30.2493 19.0543 29.2473 18.6453 28.2045 18.6501Z" fill="white"/>
</svg>
