<svg width="32" height="32" viewBox="0 0 32 32" fill="none" xmlns="http://www.w3.org/2000/svg">
<g clip-path="url(#clip0_10051_28811)">
<rect width="32" height="32" fill="#65BCFF"/>
<path d="M15.8352 26C14.1339 24.1262 12.6396 22.0784 11.3778 19.8913C10.3011 18.2354 9.56041 16.3884 9.19706 14.4532C8.91432 13.3117 8.93617 12.1173 9.26046 10.9867C9.58476 9.85605 10.2004 8.82795 11.0472 8.00289C12.3336 6.75221 14.0559 6.03596 15.8602 6.00132C17.6644 5.96668 19.4136 6.61629 20.7482 7.81665C22.031 8.96855 22.8254 10.5573 22.972 12.264C22.9758 12.2682 22.9786 12.2731 22.9805 12.2784C22.9823 12.2837 22.9831 12.2893 22.9828 12.2949C22.9828 12.3151 22.9828 12.3353 22.9828 12.3566C22.9935 12.5184 23 12.6759 23 12.8387V12.8738C23 13.0037 23 13.1303 22.9871 13.2602C22.9434 13.9644 22.7883 14.6574 22.5272 15.3141C22.1698 16.3658 21.7513 17.3963 21.2737 18.4004C20.3359 20.3825 19.1519 22.2415 17.7489 23.9343C17.1573 24.6631 16.518 25.3538 15.8352 26ZM16.0011 9.84719C15.489 9.85286 14.99 10.0081 14.567 10.2934C14.1441 10.5787 13.8159 10.9813 13.624 11.4505C13.432 11.9197 13.3848 12.4345 13.4883 12.9301C13.5918 13.4258 13.8414 13.8801 14.2056 14.2358C14.5698 14.5916 15.0324 14.833 15.5351 14.9295C16.0378 15.026 16.5582 14.9734 17.0307 14.7783C17.5032 14.5832 17.9068 14.2544 18.1906 13.8331C18.4744 13.4118 18.6257 12.917 18.6255 12.4109C18.6207 11.7273 18.3417 11.0735 17.8497 10.5928C17.3577 10.1122 16.6929 9.84407 16.0011 9.84719Z" fill="white"/>
</g>
<defs>
<clipPath id="clip0_10051_28811">
<rect width="32" height="32" rx="3.2" fill="white"/>
</clipPath>
</defs>
</svg>
