<svg width="39" height="45" viewBox="0 0 39 45" fill="none" xmlns="http://www.w3.org/2000/svg">
<g filter="url(#filter0_d_10085_22936)">
<path d="M30 13.5898C30 20.7853 21.0409 30 19.5001 30C17.3716 30 9 20.7843 9 13.5898C9 12.1991 9.27159 10.822 9.79928 9.53719C10.327 8.25236 11.1004 7.08496 12.0754 6.1016C13.0505 5.11824 14.208 4.3382 15.4819 3.80603C16.7558 3.27386 18.1212 2.99997 19.5001 3C22.2849 3 24.9555 4.11569 26.9247 6.10166C28.8938 8.08763 30 10.7812 30 13.5898Z" fill="white"/>
</g>
<path d="M19.4527 28.9315C18.7479 28.733 16.5092 26.9197 14.1696 23.6979C11.5488 20.0885 10.0459 16.4046 10.0459 13.5904C10.0488 11.0626 11.0457 8.63913 12.8179 6.85169C14.5902 5.06424 16.9931 4.0588 19.4995 4.05591C22.0058 4.0588 24.4087 5.06424 26.181 6.85169C27.9533 8.63913 28.9502 11.0626 28.9531 13.5904C28.9531 17.2874 26.3111 21.4062 24.7361 23.5319C22.4371 26.6359 20.1529 28.6278 19.4527 28.9315Z" fill="#FFC217"/>
<path d="M14.7127 14.3034C14.7156 14.1348 14.7522 13.9684 14.8203 13.8138C14.8885 13.6592 14.9869 13.5193 15.1098 13.4022C15.2328 13.2851 15.378 13.193 15.5371 13.1313C15.6962 13.0696 15.8661 13.0394 16.037 13.0424C16.2068 13.0397 16.3754 13.0703 16.533 13.1324C16.6907 13.1945 16.8342 13.2869 16.9553 13.4042C17.0764 13.5216 17.1726 13.6615 17.2384 13.8158C17.3041 13.9702 17.3381 14.1359 17.3383 14.3033L17.3383 15.5753C17.344 16.1269 17.5702 16.654 17.9678 17.042C18.3653 17.43 18.902 17.6477 19.4614 17.6477C20.0207 17.6477 20.5575 17.43 20.9551 17.0419C21.3526 16.6539 21.5788 16.1268 21.5846 15.5752L21.5846 14.3032C21.5875 14.1346 21.6241 13.9683 21.6922 13.8137C21.7604 13.659 21.8587 13.5192 21.9817 13.4021C22.1047 13.285 22.2499 13.1929 22.4089 13.1312C22.568 13.0694 22.7379 13.0392 22.9088 13.0422C23.0785 13.0395 23.2471 13.0701 23.4047 13.1323C23.5623 13.1944 23.7058 13.2868 23.8269 13.4041C23.948 13.5215 24.0442 13.6614 24.1099 13.8157C24.1757 13.97 24.2097 14.1357 24.2099 14.3031L24.2099 15.5751C24.1798 16.7974 23.6663 17.9597 22.779 18.8138C21.8918 19.6678 20.7011 20.1459 19.4613 20.1459C18.2215 20.1459 17.0308 19.6679 16.1436 18.8139C15.2564 17.96 14.7429 16.7977 14.7129 15.5754L14.7127 14.3034Z" fill="#176CF7"/>
<path d="M17.3576 11.1539C17.3575 11.4117 17.28 11.6637 17.1346 11.878C16.9893 12.0924 16.7828 12.2594 16.5411 12.3581C16.2995 12.4567 16.0336 12.4826 15.7771 12.4323C15.5206 12.382 15.285 12.2578 15.1 12.0755C14.9151 11.8933 14.7892 11.661 14.7381 11.4082C14.6871 11.1553 14.7133 10.8932 14.8134 10.6551C14.9135 10.4169 15.083 10.2133 15.3004 10.0701C15.5179 9.92681 15.7735 9.85034 16.0351 9.85031C16.3858 9.85033 16.7222 9.98767 16.9702 10.2321C17.2182 10.4766 17.3575 10.8082 17.3576 11.1539Z" fill="#176CF7"/>
<path d="M24.2033 11.0755C24.2032 11.3333 24.1257 11.5853 23.9803 11.7997C23.835 12.014 23.6285 12.1811 23.3868 12.2797C23.1452 12.3784 22.8793 12.4042 22.6228 12.3539C22.3663 12.3036 22.1307 12.1795 21.9457 11.9972C21.7608 11.8149 21.6349 11.5826 21.5838 11.3298C21.5328 11.077 21.559 10.8149 21.6591 10.5767C21.7592 10.3385 21.9287 10.1349 22.1461 9.99168C22.3636 9.84844 22.6192 9.77197 22.8808 9.77194C23.2315 9.77196 23.5679 9.90931 23.8159 10.1538C24.0639 10.3982 24.2032 10.7298 24.2033 11.0755Z" fill="#176CF7"/>
<defs>
<filter id="filter0_d_10085_22936" x="0" y="0" width="39" height="45" filterUnits="userSpaceOnUse" color-interpolation-filters="sRGB">
<feFlood flood-opacity="0" result="BackgroundImageFix"/>
<feColorMatrix in="SourceAlpha" type="matrix" values="0 0 0 0 0 0 0 0 0 0 0 0 0 0 0 0 0 0 127 0" result="hardAlpha"/>
<feOffset dy="6"/>
<feGaussianBlur stdDeviation="4.5"/>
<feColorMatrix type="matrix" values="0 0 0 0 0 0 0 0 0 0 0 0 0 0 0 0 0 0 0.161 0"/>
<feBlend mode="normal" in2="BackgroundImageFix" result="effect1_dropShadow_10085_22936"/>
<feBlend mode="normal" in="SourceGraphic" in2="effect1_dropShadow_10085_22936" result="shape"/>
</filter>
</defs>
</svg>
