<svg width="35" height="35" viewBox="0 0 35 35" fill="none" xmlns="http://www.w3.org/2000/svg">
<rect x="0.5" y="0.500046" width="34.0021" height="33.9999" rx="9.5" fill="white"/>
<rect x="0.5" y="0.500046" width="34.0021" height="33.9999" rx="9.5" stroke="#176CF7"/>
<path d="M23.8751 9.00005H20.0294C18.8557 9.00005 17.9043 9.95145 17.9043 11.1251V14.9706C17.9043 16.1443 18.8557 17.0957 20.0294 17.0957H23.8751C25.0487 17.0957 26.0002 16.1443 26.0002 14.9706V11.1251C26.0002 9.95145 25.0487 9.00005 23.8751 9.00005Z" fill="#176CF7"/>
<path d="M14.9708 9.00005H11.1251C9.95143 9.00005 9 9.95145 9 11.1251V14.9706C9 16.1443 9.95143 17.0957 11.1251 17.0957H14.9708C16.1444 17.0957 17.0959 16.1443 17.0959 14.9706V11.1251C17.0959 9.95145 16.1444 9.00005 14.9708 9.00005Z" fill="#176CF7"/>
<path d="M23.8751 17.9044H20.0294C18.8557 17.9044 17.9043 18.8559 17.9043 20.0295V23.875C17.9043 25.0487 18.8557 26.0001 20.0294 26.0001H23.8751C25.0487 26.0001 26.0002 25.0487 26.0002 23.875V20.0295C26.0002 18.8559 25.0487 17.9044 23.8751 17.9044Z" fill="#176CF7"/>
<path d="M14.9708 17.9044H11.1251C9.95143 17.9044 9 18.8559 9 20.0295V23.875C9 25.0487 9.95143 26.0001 11.1251 26.0001H14.9708C16.1444 26.0001 17.0959 25.0487 17.0959 23.875V20.0295C17.0959 18.8559 16.1444 17.9044 14.9708 17.9044Z" fill="#176CF7"/>
</svg>
