<svg width="14" height="16" viewBox="0 0 14 16" fill="none" xmlns="http://www.w3.org/2000/svg">
<path d="M7.45706 15.9764C7.89055 15.975 8.30591 15.8023 8.61243 15.4957C8.91896 15.1892 9.09174 14.7739 9.09306 14.3404H5.82106C5.82093 14.5552 5.86316 14.768 5.94533 14.9666C6.0275 15.1651 6.148 15.3455 6.29994 15.4975C6.45189 15.6494 6.63229 15.7699 6.83084 15.8521C7.02939 15.9343 7.24218 15.9765 7.45706 15.9764ZM12.3641 11.0694V6.97637C12.4468 5.82141 12.1247 4.67371 11.4531 3.73043C10.7816 2.78715 9.80248 2.10719 8.68406 1.80737V1.25337C8.68406 0.927947 8.55479 0.615854 8.32468 0.385747C8.09457 0.15564 7.78248 0.0263672 7.45706 0.0263672C7.13164 0.0263672 6.81955 0.15564 6.58944 0.385747C6.35933 0.615854 6.23006 0.927947 6.23006 1.25337V1.80937C5.11061 2.10671 4.1302 2.78578 3.45827 3.72923C2.78633 4.67268 2.46509 5.82122 2.55006 6.97637V11.0654L0.914062 12.7034V13.5214H14.0001V12.7034L12.3641 11.0694Z" fill="#1B1B1B"/>
</svg>
