<svg width="14" height="14" viewBox="0 0 14 14" fill="none" xmlns="http://www.w3.org/2000/svg">
<path d="M7.00033 5.90609C7.40303 5.90609 7.72949 6.23255 7.72949 6.63525V9.9165C7.72949 10.3192 7.40303 10.6457 7.00033 10.6457C6.59762 10.6457 6.27116 10.3192 6.27116 9.9165V6.63525C6.27116 6.23255 6.59762 5.90609 7.00033 5.90609Z" fill="#E2F2FF"/>
<path d="M7.00033 3.71859C7.40303 3.71859 7.72949 4.04505 7.72949 4.44775C7.72949 4.85046 7.40303 5.17692 7.00033 5.17692C6.59762 5.17692 6.27116 4.85046 6.27116 4.44775C6.27116 4.04505 6.59762 3.71859 7.00033 3.71859Z" fill="#E2F2FF"/>
<path fill-rule="evenodd" clip-rule="evenodd" d="M7.00033 1.1665C10.222 1.1665 12.8337 3.77818 12.8337 6.99984C12.8337 10.2215 10.222 12.8332 7.00033 12.8332C3.77866 12.8332 1.16699 10.2215 1.16699 6.99984C1.16699 3.77818 3.77866 1.1665 7.00033 1.1665ZM7.00033 2.0415C4.26191 2.0415 2.04199 4.26143 2.04199 6.99984C2.04199 9.73825 4.26191 11.9582 7.00033 11.9582C9.73874 11.9582 11.9587 9.73825 11.9587 6.99984C11.9587 4.26143 9.73874 2.0415 7.00033 2.0415Z" fill="#E2F2FF"/>
</svg>
