<svg width="63" height="76" viewBox="0 0 63 76" fill="none" xmlns="http://www.w3.org/2000/svg">
<g filter="url(#filter0_d_4352_50339)">
<path d="M54 25.7484C54 41.2054 34.8019 61 31.5003 61C26.9392 61 9 41.2033 9 25.7484C9 22.761 9.58198 19.8029 10.7127 17.0428C11.8435 14.2828 13.5009 11.7751 15.5902 9.6627C17.6796 7.5503 20.16 5.87465 22.8898 4.73147C25.6197 3.58828 28.5455 2.99993 31.5003 3C37.4676 3 43.1905 5.39667 47.41 9.66283C51.6295 13.929 54 19.7151 54 25.7484Z" fill="white"/>
</g>
<path d="M31.3997 58.705C29.8894 58.2786 25.0921 54.3834 20.0786 47.4624C14.4627 39.7089 11.2422 31.7954 11.2422 25.7502C11.2483 20.32 13.3846 15.114 17.1823 11.2743C20.98 7.43461 26.1291 5.27476 31.4999 5.26855C36.8707 5.27476 42.0197 7.43461 45.8174 11.2743C49.6151 15.114 51.7514 20.32 51.7575 25.7502C51.7575 33.6919 46.0962 42.5397 42.7212 47.1059C37.7948 53.7737 32.9 58.0526 31.3997 58.705Z" fill="#FFC117"/>
<path d="M21.2421 27.2809C21.2483 26.9187 21.3267 26.5614 21.4727 26.2292C21.6187 25.897 21.8295 25.5966 22.0931 25.345C22.3566 25.0934 22.6678 24.8957 23.0087 24.7631C23.3496 24.6305 23.7136 24.5656 24.0799 24.5722C24.4436 24.5663 24.8049 24.632 25.1427 24.7654C25.4805 24.8988 25.7881 25.0974 26.0476 25.3494C26.3071 25.6014 26.5133 25.902 26.6542 26.2336C26.7951 26.5651 26.8679 26.9211 26.8684 27.2807L26.8684 30.0132C26.8806 31.1981 27.3653 32.3303 28.2172 33.1639C29.069 33.9974 30.2192 34.465 31.4178 34.465C32.6164 34.4649 33.7666 33.9973 34.6185 33.1637C35.4704 32.3301 35.9552 31.1979 35.9675 30.013L35.9676 27.2805C35.9738 26.9184 36.0522 26.561 36.1982 26.2289C36.3442 25.8968 36.555 25.5963 36.8185 25.3448C37.082 25.0932 37.3931 24.8955 37.734 24.7628C38.0748 24.6302 38.4388 24.5653 38.8051 24.5718C39.1688 24.566 39.53 24.6317 39.8678 24.7652C40.2055 24.8986 40.5131 25.0971 40.7725 25.3492C41.0319 25.6012 41.2381 25.9017 41.379 26.2333C41.5199 26.5648 41.5927 26.9207 41.5931 27.2803L41.5931 30.0128C41.5286 32.6385 40.4283 35.1353 38.527 36.9699C36.6257 38.8045 34.0743 39.8315 31.4176 39.8315C28.7608 39.8316 26.2094 38.8047 24.3083 36.9702C22.4071 35.1358 21.3069 32.6391 21.2425 30.0134L21.2421 27.2809Z" fill="#176CF7"/>
<path d="M26.9096 20.5155C26.9095 21.0693 26.7433 21.6107 26.4319 22.0711C26.1205 22.5316 25.6779 22.8904 25.1601 23.1023C24.6423 23.3143 24.0726 23.3697 23.5229 23.2617C22.9732 23.1536 22.4683 22.887 22.0721 22.4954C21.6758 22.1038 21.4059 21.6049 21.2966 21.0618C21.1872 20.5186 21.2433 19.9556 21.4578 19.444C21.6723 18.9323 22.0354 18.495 22.5014 18.1873C22.9674 17.8796 23.5152 17.7153 24.0757 17.7153C24.8273 17.7153 25.5481 18.0103 26.0795 18.5355C26.611 19.0606 26.9096 19.7728 26.9096 20.5155Z" fill="#176CF7"/>
<path d="M41.5795 20.3471C41.5795 20.9009 41.4132 21.4422 41.1018 21.9027C40.7904 22.3631 40.3478 22.722 39.83 22.9339C39.3122 23.1458 38.7425 23.2013 38.1928 23.0932C37.6432 22.9852 37.1383 22.7185 36.742 22.3269C36.3457 21.9354 36.0758 21.4365 35.9665 20.8933C35.8572 20.3502 35.9133 19.7872 36.1277 19.2755C36.3422 18.7639 36.7054 18.3266 37.1714 18.0188C37.6373 17.7111 38.1852 17.5469 38.7456 17.5468C39.4972 17.5468 40.218 17.8419 40.7494 18.367C41.2809 18.8922 41.5795 19.6044 41.5795 20.3471Z" fill="#176CF7"/>
<defs>
<filter id="filter0_d_4352_50339" x="0" y="0" width="63" height="76" filterUnits="userSpaceOnUse" color-interpolation-filters="sRGB">
<feFlood flood-opacity="0" result="BackgroundImageFix"/>
<feColorMatrix in="SourceAlpha" type="matrix" values="0 0 0 0 0 0 0 0 0 0 0 0 0 0 0 0 0 0 127 0" result="hardAlpha"/>
<feOffset dy="6"/>
<feGaussianBlur stdDeviation="4.5"/>
<feColorMatrix type="matrix" values="0 0 0 0 0 0 0 0 0 0 0 0 0 0 0 0 0 0 0.161 0"/>
<feBlend mode="normal" in2="BackgroundImageFix" result="effect1_dropShadow_4352_50339"/>
<feBlend mode="normal" in="SourceGraphic" in2="effect1_dropShadow_4352_50339" result="shape"/>
</filter>
</defs>
</svg>
