<svg width="167" height="36" viewBox="0 0 167 36" fill="none" xmlns="http://www.w3.org/2000/svg">
<g clip-path="url(#clip0_213_3658)">
<path d="M48.3831 12.6432C48.3831 15.1438 47.6448 17.5883 46.2616 19.6675C44.8785 21.7467 42.9125 23.3672 40.6124 24.3241C38.3123 25.281 35.7813 25.5313 33.3396 25.0434C30.8978 24.5554 28.655 23.3512 26.8946 21.5829C25.1343 19.8146 23.9356 17.5617 23.45 15.1091C22.9644 12.6565 23.2139 10.1143 24.1667 7.8041C25.1196 5.49387 26.7331 3.51935 28.8033 2.13023C30.8734 0.741112 33.3071 -0.00021471 35.7967 4.6647e-08C37.4497 4.6647e-08 39.0866 0.327026 40.6137 0.962405C42.1409 1.59778 43.5285 2.52907 44.6974 3.7031C45.8662 4.87713 46.7934 6.27091 47.426 7.80485C48.0585 9.33879 48.3841 10.9829 48.3841 12.6432" fill="#FFC117"/>
<path d="M1.77395 6.43887C2.0665 6.43509 2.35512 6.50665 2.61231 6.64674C2.86949 6.78683 3.08664 6.99078 3.24306 7.23911C4.4812 6.56041 5.90541 6.30429 7.30108 6.50934C8.69675 6.71439 9.98826 7.3695 10.981 8.37596C11.8559 7.47222 12.9768 6.84781 14.2033 6.58092C15.4298 6.31402 16.7074 6.4165 17.8763 6.87552C19.0451 7.33455 20.0531 8.12971 20.7741 9.16145C21.4951 10.1932 21.897 11.4157 21.9296 12.6758V18.5131C21.9152 18.9727 21.7207 19.4079 21.3885 19.7243C21.0564 20.0407 20.6133 20.2126 20.1556 20.2026C19.9306 20.2071 19.707 20.1669 19.4975 20.0843C19.288 20.0017 19.0968 19.8784 18.9349 19.7214C18.773 19.5644 18.6436 19.3769 18.554 19.1695C18.4644 18.9622 18.4165 18.7391 18.413 18.5131V12.6769C18.413 11.9192 18.1134 11.1926 17.58 10.6568C17.0466 10.1211 16.3232 9.82008 15.5689 9.82008C14.8145 9.82008 14.0911 10.1211 13.5577 10.6568C13.0243 11.1926 12.7247 11.9192 12.7247 12.6769V18.5131C12.7212 18.7391 12.6733 18.9622 12.5837 19.1695C12.4941 19.3769 12.3647 19.5644 12.2028 19.7214C12.0409 19.8784 11.8497 20.0017 11.6402 20.0843C11.4307 20.1669 11.2071 20.2071 10.9821 20.2026C10.5241 20.2131 10.0804 20.0415 9.74777 19.7251C9.41512 19.4087 9.22039 18.973 9.20597 18.5131V12.6769C9.20597 11.9192 8.90632 11.1926 8.37293 10.6568C7.83955 10.1211 7.11612 9.82008 6.3618 9.82008C5.60749 9.82008 4.88406 10.1211 4.35068 10.6568C3.81729 11.1926 3.51764 11.9192 3.51764 12.6769V18.5131C3.51413 18.7391 3.46621 18.9622 3.37665 19.1695C3.28708 19.3769 3.15763 19.5644 2.99572 19.7214C2.83381 19.8784 2.64263 20.0017 2.43315 20.0843C2.22368 20.1669 2.00002 20.2071 1.77504 20.2026C1.31719 20.2129 0.873833 20.0411 0.541418 19.7247C0.209003 19.4083 0.0144203 18.9729 0 18.5131V8.13056C0.0138621 7.67061 0.208051 7.23478 0.540292 6.91794C0.872534 6.60111 1.31593 6.42892 1.77395 6.43887Z" fill="white"/>
<path d="M49.6658 13.3219C49.6771 12.4059 49.868 11.5012 50.2278 10.6594C50.5875 9.8177 51.109 9.05548 51.7624 8.41639C52.4157 7.77729 53.1881 7.27386 54.0354 6.93492C54.8826 6.59597 55.7881 6.42816 56.7 6.44107C57.9822 6.4413 59.2403 6.79146 60.3398 7.45414C60.4769 7.14081 60.7052 6.87642 60.9945 6.69564C61.2839 6.51486 61.6209 6.42613 61.9613 6.44107C62.1864 6.43647 62.4102 6.47658 62.6198 6.55909C62.8294 6.6416 63.0207 6.76489 63.1827 6.92188C63.3447 7.07887 63.4742 7.26647 63.5639 7.4739C63.6535 7.68133 63.7015 7.9045 63.705 8.13059V18.5131C63.7015 18.7392 63.6535 18.9624 63.5639 19.1698C63.4742 19.3772 63.3447 19.5648 63.1827 19.7218C63.0207 19.8788 62.8294 20.0021 62.6198 20.0846C62.4102 20.1671 62.1864 20.2072 61.9613 20.2026C61.6209 20.2176 61.2839 20.1289 60.9945 19.9481C60.7052 19.7673 60.4769 19.5029 60.3398 19.1896C59.2403 19.8524 57.9822 20.2025 56.7 20.2026C55.7881 20.2156 54.8826 20.0477 54.0354 19.7088C53.1881 19.3699 52.4157 18.8664 51.7624 18.2273C51.109 17.5882 50.5875 16.826 50.2278 15.9843C49.868 15.1425 49.6771 14.2378 49.6658 13.3219ZM53.1823 13.3219C53.1738 14.0188 53.3715 14.7027 53.7505 15.2866C54.1295 15.8705 54.6727 16.3281 55.311 16.6015C55.9494 16.8748 56.6542 16.9515 57.3361 16.8219C58.0179 16.6922 58.6461 16.362 59.1408 15.8732C59.6355 15.3844 59.9745 14.759 60.1148 14.0764C60.255 13.3937 60.1903 12.6846 59.9286 12.039C59.667 11.3934 59.2204 10.8404 58.6454 10.4502C58.0703 10.06 57.3928 9.85011 56.6989 9.84726C56.2407 9.84311 55.7863 9.92973 55.3615 10.1022C54.9367 10.2746 54.55 10.5295 54.2234 10.8522C53.8967 11.1749 53.6367 11.5591 53.4581 11.9829C53.2794 12.4067 53.1857 12.8617 53.1823 13.3219Z" fill="white"/>
<path d="M66.0901 13.9669V4.22826C66.1045 3.76869 66.2989 3.33341 66.6311 3.01704C66.9633 2.70067 67.4064 2.52878 67.864 2.53874C68.0891 2.53414 68.3129 2.57424 68.5225 2.65675C68.7321 2.73927 68.9234 2.86256 69.0854 3.01955C69.2475 3.17654 69.377 3.36414 69.4666 3.57157C69.5563 3.779 69.6042 4.00217 69.6077 4.22826V6.41074H71.8098C72.0377 6.40257 72.265 6.44061 72.478 6.5226C72.6911 6.60459 72.8854 6.72884 73.0496 6.88795C73.2138 7.04705 73.3443 7.23775 73.4335 7.44865C73.5227 7.65955 73.5686 7.88633 73.5686 8.11546C73.5686 8.3446 73.5227 8.57138 73.4335 8.78228C73.3443 8.99318 73.2138 9.18388 73.0496 9.34298C72.8854 9.50209 72.6911 9.62634 72.478 9.70833C72.265 9.79032 72.0377 9.82836 71.8098 9.82019H69.6077V13.968C69.6134 14.7208 69.916 15.4406 70.4491 15.9698C70.9822 16.4989 71.7024 16.7943 72.4519 16.7911H73.7664C73.9965 16.7794 74.2265 16.8149 74.4426 16.8953C74.6586 16.9757 74.8561 17.0994 75.0231 17.2588C75.19 17.4183 75.3229 17.6101 75.4138 17.8228C75.5046 18.0354 75.5515 18.2644 75.5515 18.4958C75.5515 18.7272 75.5046 18.9562 75.4138 19.1689C75.3229 19.3815 75.19 19.5734 75.0231 19.7328C74.8561 19.8923 74.6586 20.016 74.4426 20.0964C74.2265 20.1768 73.9965 20.2122 73.7664 20.2005H72.4519C71.6266 20.2107 70.8073 20.0575 70.041 19.7496C69.2746 19.4417 68.5761 18.9852 67.9855 18.4061C67.3948 17.827 66.9235 17.1368 66.5984 16.3747C66.2734 15.6126 66.1011 14.7937 66.0912 13.9647" fill="white"/>
<path d="M71.4439 6.44092H61.8672V9.79933H71.4439V6.44092Z" fill="white"/>
<path d="M29.4324 12.2305C29.4363 12.0005 29.4853 11.7736 29.5766 11.5627C29.6679 11.3517 29.7997 11.161 29.9645 11.0012C30.1292 10.8415 30.3237 10.716 30.5368 10.6318C30.7499 10.5476 30.9774 10.5064 31.2063 10.5105C31.4337 10.5068 31.6595 10.5485 31.8707 10.6332C32.0819 10.7179 32.2742 10.844 32.4365 11.004C32.5987 11.1641 32.7277 11.3549 32.8158 11.5654C32.904 11.776 32.9496 12.0021 32.95 12.2305V13.9678C32.95 14.7254 33.2497 15.4521 33.783 15.9878C34.3164 16.5236 35.0399 16.8245 35.7942 16.8245C36.5485 16.8245 37.2719 16.5236 37.8053 15.9878C38.3387 15.4521 38.6383 14.7254 38.6383 13.9678V12.2305C38.6423 12.0005 38.6913 11.7736 38.7826 11.5627C38.8739 11.3517 39.0057 11.161 39.1704 11.0012C39.3352 10.8415 39.5297 10.716 39.7428 10.6318C39.9558 10.5476 40.1834 10.5064 40.4123 10.5105C40.6396 10.5069 40.8653 10.5488 41.0764 10.6335C41.2874 10.7183 41.4796 10.8444 41.6417 11.0044C41.8039 11.1644 41.9327 11.3552 42.0208 11.5657C42.1089 11.7762 42.1545 12.0021 42.1549 12.2305V13.9678C42.1174 15.6374 41.4307 17.2259 40.2418 18.3934C39.0529 19.5609 37.4563 20.2146 35.7936 20.2146C34.131 20.2146 32.5343 19.5609 31.3455 18.3934C30.1566 17.2259 29.4699 15.6374 29.4324 13.9678V12.2305Z" fill="white"/>
<path d="M32.9782 7.93516C32.9782 8.28714 32.8742 8.63122 32.6796 8.92388C32.4849 9.21654 32.2081 9.44464 31.8844 9.57934C31.5606 9.71404 31.2044 9.74928 30.8607 9.68061C30.517 9.61194 30.2013 9.44245 29.9535 9.19356C29.7057 8.94467 29.537 8.62757 29.4686 8.28235C29.4003 7.93714 29.4353 7.57931 29.5694 7.25412C29.7035 6.92893 29.9306 6.65099 30.222 6.45544C30.5134 6.25989 30.8559 6.15552 31.2064 6.15552C31.6763 6.15552 32.1269 6.34302 32.4592 6.67676C32.7915 7.01051 32.9782 7.46317 32.9782 7.93516Z" fill="white"/>
<path d="M42.1583 7.93516C42.1583 8.28714 42.0544 8.63122 41.8597 8.92388C41.665 9.21654 41.3883 9.44464 41.0646 9.57934C40.7408 9.71404 40.3846 9.74928 40.0409 9.68061C39.6972 9.61194 39.3815 9.44245 39.1337 9.19356C38.8859 8.94467 38.7172 8.62757 38.6488 8.28235C38.5804 7.93714 38.6155 7.57931 38.7496 7.25412C38.8837 6.92893 39.1108 6.65099 39.4022 6.45544C39.6936 6.25989 40.0361 6.15552 40.3865 6.15552C40.8565 6.15552 41.3071 6.34302 41.6394 6.67676C41.9717 7.01051 42.1583 7.46317 42.1583 7.93516Z" fill="white"/>
<path d="M29.4324 12.2305C29.4363 12.0005 29.4853 11.7736 29.5766 11.5627C29.6679 11.3517 29.7997 11.161 29.9645 11.0012C30.1292 10.8415 30.3237 10.716 30.5368 10.6318C30.7499 10.5476 30.9774 10.5064 31.2063 10.5105C31.4337 10.5068 31.6595 10.5485 31.8707 10.6332C32.0819 10.7179 32.2742 10.844 32.4365 11.004C32.5987 11.1641 32.7277 11.3549 32.8158 11.5654C32.904 11.776 32.9496 12.0021 32.95 12.2305V13.9678C32.95 14.7254 33.2497 15.4521 33.783 15.9878C34.3164 16.5236 35.0399 16.8245 35.7942 16.8245C36.5485 16.8245 37.2719 16.5236 37.8053 15.9878C38.3387 15.4521 38.6383 14.7254 38.6383 13.9678V12.2305C38.6423 12.0005 38.6913 11.7736 38.7826 11.5627C38.8739 11.3517 39.0057 11.161 39.1704 11.0012C39.3352 10.8415 39.5297 10.716 39.7428 10.6318C39.9558 10.5476 40.1834 10.5064 40.4123 10.5105C40.6396 10.5069 40.8653 10.5488 41.0764 10.6335C41.2874 10.7183 41.4796 10.8444 41.6417 11.0044C41.8039 11.1644 41.9327 11.3552 42.0208 11.5657C42.1089 11.7762 42.1545 12.0021 42.1549 12.2305V13.9678C42.1174 15.6374 41.4307 17.2259 40.2418 18.3934C39.0529 19.5609 37.4563 20.2146 35.7936 20.2146C34.131 20.2146 32.5343 19.5609 31.3455 18.3934C30.1566 17.2259 29.4699 15.6374 29.4324 13.9678V12.2305Z" fill="#176CF7"/>
<path d="M32.9782 7.93516C32.9782 8.28714 32.8742 8.63122 32.6796 8.92388C32.4849 9.21654 32.2081 9.44464 31.8844 9.57934C31.5606 9.71404 31.2044 9.74928 30.8607 9.68061C30.517 9.61194 30.2013 9.44245 29.9535 9.19356C29.7057 8.94467 29.537 8.62757 29.4686 8.28235C29.4003 7.93714 29.4353 7.57931 29.5694 7.25412C29.7035 6.92893 29.9306 6.65099 30.222 6.45544C30.5134 6.25989 30.8559 6.15552 31.2064 6.15552C31.6763 6.15552 32.1269 6.34302 32.4592 6.67676C32.7915 7.01051 32.9782 7.46317 32.9782 7.93516Z" fill="#176CF7"/>
<path d="M42.1583 7.93516C42.1583 8.28714 42.0544 8.63122 41.8597 8.92388C41.665 9.21654 41.3883 9.44464 41.0646 9.57934C40.7408 9.71404 40.3846 9.74928 40.0409 9.68061C39.6972 9.61194 39.3815 9.44245 39.1337 9.19356C38.8859 8.94467 38.7172 8.62757 38.6488 8.28235C38.5804 7.93714 38.6155 7.57931 38.7496 7.25412C38.8837 6.92893 39.1108 6.65099 39.4022 6.45544C39.6936 6.25989 40.0361 6.15552 40.3865 6.15552C40.8565 6.15552 41.3071 6.34302 41.6394 6.67676C41.9717 7.01051 42.1583 7.46317 42.1583 7.93516Z" fill="#176CF7"/>
<path d="M79.9883 13.4669C79.9883 13.9363 80.0767 14.371 80.2536 14.7709C80.4305 15.1708 80.6693 15.5272 80.97 15.8402C81.2884 16.1358 81.651 16.3705 82.0579 16.5444C82.4647 16.7182 82.9069 16.8052 83.3845 16.8052C83.8621 16.8052 84.3043 16.7182 84.7112 16.5444C85.118 16.3705 85.4718 16.1358 85.7725 15.8402C86.0909 15.5272 86.3385 15.1708 86.5154 14.7709C86.6923 14.371 86.7807 13.9363 86.7807 13.4669C86.7807 12.9975 86.6923 12.5628 86.5154 12.1629C86.3385 11.763 86.0909 11.4153 85.7725 11.1197C85.4718 10.8067 85.118 10.5633 84.7112 10.3895C84.3043 10.2156 83.8621 10.1287 83.3845 10.1287C82.9069 10.1287 82.4647 10.2156 82.0579 10.3895C81.651 10.5633 81.2884 10.8067 80.97 11.1197C80.6693 11.4153 80.4305 11.763 80.2536 12.1629C80.0767 12.5628 79.9883 12.9975 79.9883 13.4669ZM76.592 13.4669C76.592 12.5454 76.7689 11.6848 77.1227 10.885C77.4765 10.0678 77.9629 9.35494 78.582 8.74641C79.2011 8.13787 79.9175 7.65974 80.7312 7.312C81.5626 6.96427 82.447 6.7904 83.3845 6.7904C84.322 6.7904 85.1976 6.96427 86.0113 7.312C86.8426 7.65974 87.5679 8.13787 88.187 8.74641C88.8061 9.35494 89.2925 10.0678 89.6463 10.885C90.0001 11.6848 90.177 12.5454 90.177 13.4669C90.177 14.3884 90.0001 15.2577 89.6463 16.0749C89.2925 16.8747 88.8061 17.5789 88.187 18.1874C87.5679 18.7959 86.8426 19.2741 86.0113 19.6218C85.1976 19.9695 84.322 20.1434 83.3845 20.1434C82.1286 20.1434 80.9965 19.8478 79.9883 19.2567V23.4817C79.9883 23.9337 79.8202 24.3249 79.4841 24.6553C79.1481 24.9856 78.7501 25.1508 78.2902 25.1508C77.8303 25.1508 77.4323 24.9856 77.0962 24.6553C76.7601 24.3249 76.592 23.9337 76.592 23.4817V13.4669Z" fill="white"/>
<path d="M91.0196 13.4669C91.0196 12.5454 91.1965 11.6848 91.5503 10.885C91.904 10.0678 92.3905 9.35494 93.0096 8.74641C93.6287 8.13787 94.3451 7.65974 95.1588 7.312C95.9901 6.96427 96.8746 6.7904 97.8121 6.7904C98.7496 6.7904 99.6252 6.96427 100.439 7.312C101.27 7.65974 101.995 8.13787 102.615 8.74641C103.234 9.35494 103.72 10.0678 104.074 10.885C104.428 11.6848 104.605 12.5454 104.605 13.4669V18.4743C104.605 18.9263 104.436 19.3175 104.1 19.6479C103.764 19.9782 103.366 20.1434 102.906 20.1434C102.553 20.1434 102.234 20.0565 101.951 19.8826C101.686 19.6913 101.482 19.4479 101.341 19.1524C100.828 19.4653 100.271 19.7087 99.6694 19.8826C99.0857 20.0565 98.4665 20.1434 97.8121 20.1434C96.8746 20.1434 95.9901 19.9695 95.1588 19.6218C94.3451 19.2741 93.6287 18.7959 93.0096 18.1874C92.3905 17.5789 91.904 16.8747 91.5503 16.0749C91.1965 15.2577 91.0196 14.3884 91.0196 13.4669ZM94.4158 13.4669C94.4158 13.9363 94.5043 14.371 94.6812 14.7709C94.8581 15.1708 95.0968 15.5272 95.3976 15.8402C95.716 16.1358 96.0786 16.3705 96.4854 16.5444C96.8923 16.7182 97.3345 16.8052 97.8121 16.8052C98.2897 16.8052 98.7319 16.7182 99.1387 16.5444C99.5456 16.3705 99.8993 16.1358 100.2 15.8402C100.518 15.5272 100.766 15.1708 100.943 14.7709C101.12 14.371 101.208 13.9363 101.208 13.4669C101.208 12.9975 101.12 12.5628 100.943 12.1629C100.766 11.763 100.518 11.4153 100.2 11.1197C99.8993 10.8067 99.5456 10.5633 99.1387 10.3895C98.7319 10.2156 98.2897 10.1287 97.8121 10.1287C97.3345 10.1287 96.8923 10.2156 96.4854 10.3895C96.0786 10.5633 95.716 10.8067 95.3976 11.1197C95.0968 11.4153 94.8581 11.763 94.6812 12.1629C94.5043 12.5628 94.4158 12.9975 94.4158 13.4669Z" fill="white"/>
<path d="M112.664 6.7904C113.124 6.7904 113.522 6.95557 113.858 7.28592C114.194 7.61627 114.362 8.00747 114.362 8.45953C114.362 8.91158 114.194 9.30278 113.858 9.63313C113.522 9.96348 113.124 10.1287 112.664 10.1287C112.187 10.1287 111.744 10.2156 111.338 10.3895C110.931 10.5633 110.568 10.8067 110.25 11.1197C109.949 11.4153 109.71 11.763 109.533 12.1629C109.356 12.5628 109.268 12.9975 109.268 13.4669V18.4743C109.268 18.9263 109.1 19.3175 108.764 19.6479C108.428 19.9782 108.03 20.1434 107.57 20.1434C107.11 20.1434 106.712 19.9782 106.376 19.6479C106.04 19.3175 105.872 18.9263 105.872 18.4743V13.4669C105.872 12.5454 106.049 11.6848 106.402 10.885C106.756 10.0678 107.243 9.35494 107.862 8.74641C108.481 8.13787 109.197 7.65974 110.011 7.312C110.842 6.96427 111.727 6.7904 112.664 6.7904Z" fill="white"/>
<path d="M121.143 16.8052C121.603 16.8052 122.001 16.9703 122.337 17.3007C122.673 17.631 122.841 18.0222 122.841 18.4743C122.841 18.9263 122.673 19.3175 122.337 19.6479C122.001 19.9782 121.603 20.1434 121.143 20.1434H120.294C119.587 20.1434 118.923 20.013 118.304 19.7522C117.685 19.4914 117.145 19.135 116.686 18.6829C116.226 18.2309 115.863 17.7006 115.598 17.092C115.332 16.4835 115.2 15.8315 115.2 15.136V5.12127C115.2 4.66922 115.368 4.27802 115.704 3.94767C116.04 3.61732 116.438 3.45215 116.898 3.45215C117.358 3.45215 117.756 3.61732 118.092 3.94767C118.428 4.27802 118.596 4.66922 118.596 5.12127V6.7904H121.143C121.603 6.7904 122.001 6.95557 122.337 7.28592C122.673 7.61627 122.841 8.00747 122.841 8.45953C122.841 8.91158 122.673 9.30278 122.337 9.63313C122.001 9.96348 121.603 10.1287 121.143 10.1287H118.596V15.136C118.596 15.5881 118.764 15.9793 119.1 16.3096C119.436 16.64 119.834 16.8052 120.294 16.8052H121.143Z" fill="white"/>
<path d="M131.755 16.8052C132.002 16.8052 132.206 16.7269 132.365 16.5704C132.524 16.4139 132.604 16.214 132.604 15.9706C132.604 15.7272 132.524 15.5272 132.365 15.3707C132.206 15.2143 132.002 15.136 131.755 15.136H128.358C127.775 15.136 127.226 15.0317 126.713 14.8231C126.2 14.597 125.749 14.2928 125.36 13.9103C124.971 13.5278 124.662 13.0844 124.432 12.5802C124.219 12.076 124.113 11.537 124.113 10.9632C124.113 10.3895 124.219 9.85046 124.432 9.34625C124.662 8.84203 124.971 8.39867 125.36 8.01616C125.749 7.63366 126.2 7.33808 126.713 7.12944C127.226 6.90341 127.775 6.7904 128.358 6.7904H133.453C133.913 6.7904 134.311 6.95557 134.647 7.28592C134.983 7.61627 135.151 8.00747 135.151 8.45953C135.151 8.91158 134.983 9.30278 134.647 9.63313C134.311 9.96348 133.913 10.1287 133.453 10.1287H128.358C128.111 10.1287 127.907 10.2069 127.748 10.3634C127.589 10.5199 127.509 10.7198 127.509 10.9632C127.509 11.2066 127.589 11.4066 127.748 11.5631C127.907 11.7195 128.111 11.7978 128.358 11.7978H131.755C132.338 11.7978 132.887 11.9108 133.4 12.1368C133.913 12.3455 134.364 12.641 134.753 13.0235C135.142 13.406 135.443 13.8494 135.655 14.3536C135.885 14.8578 136 15.3968 136 15.9706C136 16.5443 135.885 17.0833 135.655 17.5876C135.443 18.0918 135.142 18.5351 134.753 18.9176C134.364 19.3001 133.913 19.6044 133.4 19.8304C132.887 20.0391 132.338 20.1434 131.755 20.1434H125.811C125.351 20.1434 124.953 19.9782 124.617 19.6479C124.281 19.3175 124.113 18.9263 124.113 18.4743C124.113 18.0222 124.281 17.631 124.617 17.3007C124.953 16.9703 125.351 16.8052 125.811 16.8052H131.755Z" fill="white"/>
<path d="M110.593 27.4572L109.599 28.5467C109.271 28.123 108.629 27.8082 108.022 27.8082C107.319 27.8082 106.506 28.1472 106.506 28.9825C106.506 29.7694 107.173 29.9994 108.143 30.302C109.247 30.641 110.654 31.1252 110.654 32.8079C110.654 34.648 109.211 35.5438 107.525 35.5438C106.409 35.5438 105.257 35.1201 104.578 34.3211L105.669 33.3042C106.094 33.8853 106.87 34.2485 107.549 34.2485C108.265 34.2485 109.102 33.8974 109.102 32.9774C109.102 32.0816 108.204 31.8273 107.125 31.4884C106.082 31.1615 104.954 30.6531 104.954 29.0551C104.954 27.3119 106.542 26.5371 108.095 26.5371C108.956 26.5371 109.938 26.8398 110.593 27.4572Z" fill="white"/>
<path d="M113.228 31.8394H116.211C116.211 31.0889 115.787 30.4352 114.841 30.4352C113.98 30.4352 113.288 31.0284 113.228 31.8394ZM117.667 32.4932C117.667 32.6263 117.667 32.7474 117.655 32.8805H113.228C113.288 33.7037 114.04 34.309 114.889 34.309C115.617 34.309 116.102 34.0185 116.43 33.5585L117.4 34.3332C116.83 35.108 116.005 35.4954 114.902 35.4954C113.107 35.4954 111.772 34.3453 111.772 32.4568C111.772 30.5804 113.094 29.3457 114.853 29.3457C116.478 29.3457 117.667 30.3989 117.667 32.4932Z" fill="white"/>
<path d="M119.101 35.3259V26.174H120.556V35.3259H119.101Z" fill="white"/>
<path d="M122.346 35.3259V26.174H123.801V35.3259H122.346Z" fill="white"/>
<path d="M126.683 31.8394H129.666C129.666 31.0889 129.242 30.4352 128.296 30.4352C127.435 30.4352 126.743 31.0284 126.683 31.8394ZM131.122 32.4932C131.122 32.6263 131.122 32.7474 131.11 32.8805H126.683C126.743 33.7037 127.495 34.309 128.344 34.309C129.072 34.309 129.557 34.0185 129.885 33.5585L130.855 34.3332C130.285 35.108 129.46 35.4954 128.356 35.4954C126.561 35.4954 125.227 34.3453 125.227 32.4568C125.227 30.5804 126.549 29.3457 128.308 29.3457C129.933 29.3457 131.122 30.3989 131.122 32.4932Z" fill="white"/>
<path d="M132.531 35.3259V29.5151H133.926V30.4836H133.95C134.266 29.8178 134.884 29.3457 135.648 29.3457C135.757 29.3457 135.903 29.3578 136 29.382V30.7136C135.806 30.6652 135.685 30.6531 135.551 30.6531C134.241 30.6531 133.987 31.791 133.987 32.2147V35.3259H132.531Z" fill="white"/>
<rect x="137.904" width="29.0963" height="12.9636" rx="1.3837" fill="url(#paint0_linear_213_3658)"/>
<path d="M146.026 5.12073C146.026 6.75605 144.7 7.34437 143.224 7.34437H142.376V10.0068H140.671V2.94694H143.264C144.809 2.94694 146.026 3.50535 146.026 5.12073ZM144.321 5.1307C144.321 4.45264 143.732 4.32301 143.124 4.32301H142.376V5.98824H143.094C143.732 5.98824 144.321 5.79879 144.321 5.1307Z" fill="#770000"/>
<path d="M151.497 10.0068H147.049V2.94694H148.764V8.521H151.497V10.0068Z" fill="#770000"/>
<path d="M158.037 7.34437C158.037 9.03952 156.841 10.1962 154.996 10.1962C153.141 10.1962 151.985 9.03952 151.985 7.34437V2.94694H153.68V7.20476C153.68 7.9626 154.049 8.6606 155.006 8.6606C155.973 8.6606 156.332 7.9626 156.332 7.20476V2.94694H158.037V7.34437Z" fill="#770000"/>
<path d="M164.233 3.63497L163.146 4.78169C162.857 4.41275 162.328 4.17343 161.889 4.17343C161.451 4.17343 160.902 4.32301 160.902 4.88141C160.902 5.35007 161.321 5.49964 161.989 5.70904C162.946 6.01816 164.183 6.42699 164.183 7.83297C164.183 9.45832 162.876 10.1862 161.48 10.1862C160.473 10.1862 159.456 9.81729 158.838 9.16915L159.955 8.0324C160.294 8.46117 160.922 8.78026 161.48 8.78026C161.999 8.78026 162.458 8.58083 162.458 8.01245C162.458 7.47399 161.919 7.30448 160.992 7.00534C160.094 6.71616 159.187 6.25747 159.187 4.98112C159.187 3.4156 160.603 2.76746 161.919 2.76746C162.717 2.76746 163.614 3.0666 164.233 3.63497Z" fill="#770000"/>
</g>
<defs>
<linearGradient id="paint0_linear_213_3658" x1="137.904" y1="6.48178" x2="167" y2="6.48178" gradientUnits="userSpaceOnUse">
<stop stop-color="#D29A00"/>
<stop offset="0.344" stop-color="#FFD664"/>
<stop offset="0.694" stop-color="#D09C0C"/>
<stop offset="1" stop-color="#FFDA71"/>
</linearGradient>
<clipPath id="clip0_213_3658">
<rect width="167" height="36" fill="white"/>
</clipPath>
</defs>
</svg>
