<svg width="14" height="16" viewBox="0 0 14 16" fill="none" xmlns="http://www.w3.org/2000/svg">
<path d="M6.543 15.95C6.97649 15.9487 7.39185 15.7759 7.69837 15.4694C8.00489 15.1628 8.17768 14.7475 8.179 14.314H4.907C4.90687 14.5289 4.9491 14.7417 5.03127 14.9402C5.11344 15.1388 5.23394 15.3192 5.38588 15.4711C5.53782 15.6231 5.71823 15.7436 5.91677 15.8257C6.11532 15.9079 6.32812 15.9501 6.543 15.95ZM11.45 11.043V6.95C11.5327 5.79505 11.2106 4.64734 10.5391 3.70406C9.86751 2.76078 8.88842 2.08082 7.77 1.781V1.227C7.77 0.90158 7.64073 0.589487 7.41062 0.35938C7.18051 0.129273 6.86842 0 6.543 0C6.21758 0 5.90549 0.129273 5.67538 0.35938C5.44527 0.589487 5.316 0.90158 5.316 1.227V1.783C4.19655 2.08034 3.21614 2.75942 2.5442 3.70286C1.87227 4.64631 1.55103 5.79485 1.636 6.95V11.039L0 12.677V13.495H13.086V12.677L11.45 11.043Z" fill="#176CF7"/>
</svg>
