<svg width="8" height="9" viewBox="0 0 8 9" fill="none" xmlns="http://www.w3.org/2000/svg">
<path d="M0.165873 8.32584C0.113342 8.27139 0.0716216 8.20646 0.0431439 8.13485C0.0146661 8.06324 0 7.98638 0 7.90874C0 7.8311 0.0146661 7.75423 0.0431439 7.68262C0.0716216 7.61101 0.113342 7.54609 0.165873 7.49163L3.18942 4.38293L0.165873 1.44752C0.11403 1.3979 0.072606 1.33741 0.0442595 1.26992C0.015913 1.20244 0.00126997 1.12946 0.00126997 1.05567C0.00126997 0.981876 0.015913 0.908897 0.0442595 0.841416C0.072606 0.773934 0.11403 0.713441 0.165873 0.663817C0.276381 0.558387 0.420146 0.5 0.569233 0.5C0.718321 0.5 0.862085 0.558387 0.972593 0.663817L3.99779 3.59923L7.0263 0.664688C7.13708 0.559135 7.28112 0.50069 7.43049 0.50069C7.57985 0.50069 7.72389 0.559135 7.83467 0.664688C7.88718 0.714161 7.92908 0.774852 7.95759 0.842719C7.98609 0.910585 8.00054 0.984071 7.99998 1.05828C8.00002 1.13241 7.98533 1.20572 7.95686 1.27351C7.92839 1.3413 7.88677 1.40205 7.83467 1.45188L4.80121 4.38468L7.83137 7.48989C7.88355 7.54438 7.92497 7.60921 7.95323 7.68065C7.9815 7.75209 7.99605 7.82873 7.99605 7.90613C7.99605 7.98352 7.9815 8.06016 7.95323 8.1316C7.92497 8.20304 7.88355 8.26787 7.83137 8.32236C7.72329 8.43352 7.57823 8.49575 7.42718 8.49575C7.27613 8.49575 7.13107 8.43352 7.02299 8.32236L3.99779 5.2154L0.972593 8.32584C0.865038 8.43687 0.720637 8.49934 0.57006 8.5C0.41891 8.4998 0.273837 8.43729 0.165873 8.32584Z" fill="currentColor"/>
</svg>
