<svg width="16" height="16" viewBox="0 0 16 16" fill="none" xmlns="http://www.w3.org/2000/svg">
<path d="M11.6466 3.64656C11.8418 3.4513 12.1583 3.4513 12.3536 3.64656C12.5489 3.84182 12.5489 4.15833 12.3536 4.35359L8.70711 8.00008L12.3536 11.6466L12.3881 11.6843C12.5483 11.8807 12.5367 12.1705 12.3536 12.3536C12.1705 12.5367 11.8807 12.5483 11.6843 12.3881L11.6466 12.3536L8.00008 8.70711L4.35359 12.3536C4.15833 12.5489 3.84182 12.5489 3.64656 12.3536C3.4513 12.1583 3.4513 11.8418 3.64656 11.6466L7.29305 8.00008L3.64656 4.35359L3.61206 4.31583C3.45185 4.11945 3.46349 3.82963 3.64656 3.64656C3.82963 3.46349 4.11945 3.45185 4.31583 3.61206L4.35359 3.64656L8.00008 7.29305L11.6466 3.64656Z" fill="#555555"/>
</svg>
