<svg width="20" height="20" viewBox="0 0 20 20" fill="none" xmlns="http://www.w3.org/2000/svg">
<path d="M16.085 14.4873C16.009 14.4643 15.9355 14.4301 15.871 14.3774L15.8238 14.3351L12.6996 11.2109L6.74015 16.8205H14.0457C15.1718 16.8204 16.085 15.9072 16.085 14.7811V14.4873ZM7.20402 7.23226C7.20402 6.84177 6.8873 6.52515 6.49683 6.52506C6.10628 6.52506 5.78963 6.84172 5.78963 7.23226C5.78969 7.62275 6.10632 7.93945 6.49683 7.93945C6.88726 7.93937 7.20396 7.6227 7.20402 7.23226ZM15.1964 7.5236V5.63721H13.31C12.9649 5.63721 12.6851 5.35725 12.685 5.01221C12.685 4.66703 12.9648 4.38721 13.31 4.38721H15.1964V2.5C15.1964 2.15492 15.4763 1.87516 15.8214 1.875C16.1665 1.875 16.4464 2.15482 16.4464 2.5V4.38721H18.3336L18.3979 4.39046C18.7128 4.42266 18.9586 4.68875 18.9586 5.01221C18.9584 5.33556 18.7128 5.60179 18.3979 5.63395L18.3336 5.63721H16.4464V7.5236C16.4464 7.86878 16.1665 8.1486 15.8214 8.1486C15.4763 8.14844 15.1964 7.86868 15.1964 7.5236ZM17.335 14.7811C17.335 16.5976 15.8621 18.0704 14.0457 18.0705H5.16463C3.34806 18.0705 1.87532 16.5976 1.87524 14.7811V5.90006C1.87524 4.08344 3.34801 2.61068 5.16463 2.61068H10.9369C11.2821 2.61068 11.5619 2.89052 11.5619 3.23568C11.5619 3.58086 11.2821 3.86068 10.9369 3.86068H5.16463C4.03837 3.86068 3.12524 4.7738 3.12524 5.90006V14.7811C3.12531 15.8283 3.91486 16.6899 4.93107 16.8058L12.2846 9.88525L12.3831 9.80957C12.6249 9.65882 12.9463 9.68933 13.1554 9.89827L16.085 12.828V10.3402C16.0852 9.99513 16.365 9.71517 16.71 9.71517C17.055 9.71532 17.3349 9.99523 17.335 10.3402V14.7811ZM8.45402 7.23226C8.45396 8.31306 7.57762 9.18937 6.49683 9.18945C5.41596 9.18945 4.53969 8.31311 4.53963 7.23226C4.53963 6.15136 5.41593 5.27506 6.49683 5.27506C7.57766 5.27515 8.45402 6.15141 8.45402 7.23226Z" fill="#555555"/>
</svg>
